<?xml version="1.0" encoding="UTF-8"?> <svg xmlns="http://www.w3.org/2000/svg" width="24" height="16" viewBox="0 0 24 16" fill="none"> <path d="M0 2C0 0.895431 0.895431 0 2 0H22C23.1046 0 24 0.895431 24 2V14C24 15.1046 23.1046 16 22 16H2C0.89543 16 0 15.1046 0 14V2Z" fill="#E2E2EB"></path> <path fill-rule="evenodd" clip-rule="evenodd" d="M15.1072 4.84285C14.1454 4.89153 13.3166 5.24989 12.837 5.8245C12.6352 6.06629 12.4789 6.39066 12.4182 6.69328C12.2712 7.42752 12.4726 7.98235 13.0544 8.44536C13.2489 8.60014 13.4649 8.73363 13.9438 8.99505C14.4329 9.26203 14.5916 9.36925 14.7171 9.51741C14.9059 9.74052 14.8877 10.0149 14.6701 10.2238C14.3736 10.5086 13.8284 10.5971 13.1203 10.4755C12.7665 10.4148 12.414 10.3011 12.0977 10.1458L11.9588 10.0775L11.9542 10.1004C11.9517 10.113 11.8794 10.4519 11.7936 10.8536C11.7077 11.2554 11.6387 11.5851 11.6402 11.5863C11.6498 11.5947 11.8728 11.674 11.9871 11.7097C13.0799 12.051 14.2664 12.0526 15.1502 11.7138C15.9852 11.3938 16.5134 10.8166 16.6649 10.0587C16.697 9.89806 16.7081 9.78062 16.7081 9.60146C16.7081 8.87877 16.3476 8.36152 15.5031 7.87246C15.444 7.8382 15.2832 7.75007 15.1459 7.67662C14.6622 7.41781 14.5306 7.33543 14.3939 7.20577C14.1815 7.00419 14.1688 6.76925 14.3594 6.56858C14.4931 6.4278 14.6996 6.33449 14.9738 6.29094C15.1064 6.26988 15.4671 6.27038 15.6365 6.29186C15.9995 6.33789 16.3491 6.43479 16.6925 6.58453C16.7222 6.59746 16.7246 6.59738 16.7289 6.58342C16.7314 6.5752 16.7995 6.26321 16.8801 5.89011C16.9608 5.51702 17.0302 5.1964 17.0344 5.17763C17.042 5.14399 17.0416 5.1433 17.0107 5.13016C16.8827 5.07582 16.5337 4.97794 16.3093 4.93347C15.9323 4.85873 15.4748 4.82425 15.1072 4.84285ZM1.03052 4.95658C1.02477 4.9745 1 5.13177 1 5.15039C1 5.1646 1.00926 5.16936 1.05379 5.178C1.15844 5.19828 1.40226 5.25709 1.55811 5.29963C1.95326 5.40748 2.50363 5.61204 2.70853 5.72721C2.95822 5.86755 3.06302 6.00508 3.14628 6.30165C3.15825 6.34426 3.48598 7.605 3.87458 9.10329C4.26318 10.6016 4.5832 11.8342 4.58574 11.8425C4.59011 11.8568 4.64245 11.8576 5.52662 11.8576H6.46289L7.90593 8.40806C8.69961 6.51082 9.34898 4.95572 9.34898 4.95227C9.34898 4.94883 8.92915 4.94602 8.41602 4.94602C7.67762 4.94602 7.48219 4.94826 7.47888 4.95678C7.41276 5.1269 5.63542 9.61904 5.63108 9.627C5.62332 9.64123 5.67351 9.89942 5.23487 7.58843C5.03045 6.51145 4.8538 5.59543 4.84232 5.55282C4.76141 5.25268 4.55634 5.05611 4.234 4.96973L4.16315 4.95074L2.5986 4.94818C1.33741 4.94611 1.03336 4.94774 1.03052 4.95658ZM10.0981 4.9912C10.011 5.39325 8.64319 11.8382 8.64319 11.8463C8.64319 11.8556 8.80313 11.8576 9.53296 11.8576H10.4227L10.4275 11.8339C10.4302 11.8209 10.7466 10.3268 11.1306 8.5137C11.5146 6.70059 11.8417 5.15614 11.8574 5.08158L11.8859 4.94602H10.9969H10.1078L10.0981 4.9912ZM19.9617 4.95142C19.861 4.96593 19.8103 4.97729 19.7528 4.99812C19.5617 5.06743 19.4162 5.21174 19.296 5.45109C19.2691 5.50468 16.6958 11.6652 16.6244 11.8469C16.621 11.8555 16.8084 11.8572 17.5564 11.8555L18.4926 11.8533L18.6736 11.3304L18.8546 10.8075L19.995 10.8096L21.1354 10.8118L21.2454 11.3326C21.3059 11.619 21.3555 11.8543 21.3557 11.8554C21.3559 11.8566 21.7259 11.8576 22.178 11.8576H23L22.9996 11.8382C22.9993 11.8276 22.6766 10.2734 22.2825 8.38459L21.5659 4.95032L20.7745 4.94932C20.3393 4.94877 19.9735 4.94971 19.9617 4.95142ZM20.5814 8.10268C20.7284 8.79028 20.8509 9.36448 20.8538 9.3787L20.859 9.40454H20.1167C19.5268 9.40454 19.3753 9.40234 19.3781 9.39379C19.3801 9.38787 19.5886 8.80659 19.8415 8.10206C20.16 7.21465 20.3032 6.82593 20.3077 6.8368C20.3113 6.84544 20.4344 7.41509 20.5814 8.10268Z" fill="url(#paint0_linear)"></path> <defs> <linearGradient id="paint0_linear" x1="0.814945" y1="5.0875" x2="22.8149" y2="11.9647" gradientUnits="userSpaceOnUse"> <stop stop-color="#1F225F"></stop> <stop offset="1" stop-color="#0F2B98"></stop> </linearGradient> </defs> </svg> 